<svg width="9792" height="11125" viewBox="0 0 9792 11125" fill="none" xmlns="http://www.w3.org/2000/svg">
<path d="M5863.13 5775.73H5648.76L6293.86 10726.4H6377.04L5863.13 5775.73Z" fill="#61656D"/>
<path opacity="0.2" d="M6377.04 10726.4H6342L6125.63 8753.2L6059.17 8706.43L5657.99 5851.53L5648.76 5775.73H5863.13L6377.04 10726.4Z" fill="black"/>
<path d="M6152.69 6999.48H8394.55C8448.71 6999.48 8500.59 7025.75 8538.83 7072.5C8577.07 7119.24 8598.6 7182.66 8598.6 7248.77V7296.15H5948.64V7248.77C5948.64 7182.66 5970.14 7119.24 6008.41 7072.5C6046.68 7025.75 6098.57 6999.48 6152.69 6999.48Z" fill="#4D61FC"/>
<path d="M8917.72 4131.6L8889.09 4126.66C8838.92 4118.01 8792.37 4159.66 8785.14 4219.69L8617.91 5608.23C8610.69 5668.26 8645.47 5723.93 8695.64 5732.58L8724.27 5737.51C8774.44 5746.17 8821 5704.52 8828.22 5644.49L8995.45 4255.95C9002.68 4195.92 8967.89 4140.25 8917.72 4131.6Z" fill="#4D61FC"/>
<path d="M8343.11 7361.04H8200.8L8628.96 10707.8H8684.28L8343.11 7361.04Z" fill="#61656D"/>
<path opacity="0.2" d="M8684.28 10707.8H8660.9L8517.37 9306.36L8473.19 9275.86L8206.92 7410.59L8200.8 7361.04H8343.11L8684.28 10707.8Z" fill="black"/>
<path d="M6421.93 7361.04H6560.64L6143.32 10707.8H6089.4L6421.93 7361.04Z" fill="#61656D"/>
<path opacity="0.2" d="M6149.05 10707.8H6126.12L6267.67 9306.36L6224.35 9275.86L6427.08 7410.59L6421.09 7361.04H6560.64L6149.05 10707.8Z" fill="black"/>
<path d="M8640.83 7296.15H5955.37C5931.37 7296.15 5911.92 7319.42 5911.92 7348.12V7364.7C5911.92 7393.39 5931.37 7416.67 5955.37 7416.67H8640.83C8664.82 7416.67 8684.28 7393.39 8684.28 7364.7V7348.12C8684.28 7319.42 8664.82 7296.15 8640.83 7296.15Z" fill="#61656D"/>
<path d="M8605.17 7347.97L8992.81 4186.17C8993.74 4178.32 8996.01 4170.78 8999.34 4163.99C9002.81 4157.18 9007.21 4151.24 9012.54 4146.54C9017.88 4141.83 9023.88 4138.44 9030.28 4136.54C9036.68 4134.64 9043.21 4134.29 9049.75 4135.49H9052.01C9065.08 4137.92 9076.82 4146.46 9084.55 4159.29C9092.42 4172.09 9095.75 4188.14 9093.75 4203.87L8703.98 7365.34C8702.24 7379.61 8696.24 7392.65 8687.17 7402.07C8678.11 7411.49 8666.64 7416.67 8654.64 7416.67C8647.44 7416.67 8640.37 7414.8 8633.97 7411.21C8627.43 7407.64 8621.57 7402.41 8616.9 7395.91C8612.23 7389.4 8608.77 7381.75 8606.77 7373.48C8604.77 7365.21 8604.23 7356.51 8605.17 7347.97Z" fill="#61656D"/>
<path d="M7888.68 7416.67L8311.54 10717.1H8366.04L8029.23 7416.67H7888.68Z" fill="#61656D"/>
<path d="M6091.45 7416.67L5758.92 10717.1H5812.84L6230.16 7416.67H6091.45Z" fill="#61656D"/>
<path opacity="0.2" d="M8366.04 10717.1H8341.9L7979.75 7517.35C7978.81 7504.93 7973.99 7493.41 7966.34 7485.02C7959.1 7476.59 7949.58 7471.55 7939.52 7470.8L7893.51 7465.15L7888.68 7416.67H8029.65L8366.04 10717.1Z" fill="black"/>
<path opacity="0.2" d="M5789.52 10717.1L6164.46 7521.39C6165.55 7508.77 6162.74 7496.11 6156.59 7485.84C6150.28 7475.46 6141.08 7468.22 6130.68 7465.47L6086.08 7455.45L6089.69 7416.67H6230.16L5810.75 10717.1H5789.52Z" fill="black"/>
<path opacity="0.2" d="M8580.24 7231.25H5960.88V7286.87H8580.24V7231.25Z" fill="black"/>
<path opacity="0.2" d="M8922.18 4125.52L8721 5738.65L8801.82 5686.78L8984.16 4184.27L8922.18 4125.52Z" fill="black"/>
<path d="M4603.49 10375.6L4601.48 10493.7C4600.09 10536.4 4585.43 10576.9 4560.43 10607.2C4535.42 10637.4 4501.9 10655 4466.54 10656.8H4464.54L4210.18 10661.5H3493.98C3482.2 10635.4 3448.87 10557.6 3489.96 10540.9L3977.25 10304.3C4063.33 10268.9 4099.34 10229.2 4150.21 10151.3C4160.61 10134.5 4169.21 10116.2 4175.78 10096.8L4533.75 9057.6L4853.16 9329.25L4815.68 9765.56" fill="#FC9D9D"/>
<path opacity="0.15" d="M4602.73 10377.4L4600.73 10494.8C4599.7 10537.3 4585.23 10577.8 4560.31 10607.8C4535.37 10638 4501.85 10655.4 4466.6 10656.6H4464.6L4209.77 10661.5H3497.85C3493.99 10652 3488.13 10637.9 3482.28 10621.5H3521.27C3521.27 10621.5 3521.27 10476.9 3910.23 10460.9C4148.03 10449.3 4289.08 10364.5 4362.67 10301.2C4396.91 10271.4 4422.7 10229.5 4436.53 10181.3C4443.58 10156.7 4450.63 10133.1 4459.28 10108.7L4630.14 9641.67L4799.67 9786.2L4816.44 9750.23L4763.21 9930.74L4602.73 10377.4Z" fill="black"/>
<path d="M3693.64 10646.6C3652.87 10592.5 3625.29 10525.8 3613.93 10453.9C3613.36 10450.5 3613.81 10447.2 3615.21 10444.1C3616.6 10441.2 3618.85 10439 3621.5 10437.8L3934.51 10302.3C3938.4 10300.6 3942.56 10299.8 3946.72 10299.9C3950.87 10300.1 3954.95 10301.4 3958.7 10303.6C3962.43 10305.9 3965.75 10308.9 3968.45 10312.8C3971.15 10316.6 3973.17 10321.1 3974.36 10325.9C3991.1 10393.8 4033.22 10539.3 4115.85 10642.7L4618.04 10640.8C4634.78 10640.8 4622.16 10656.9 4622.16 10678.1C4622.09 10687.9 4618.84 10697.3 4613.1 10704.2C4607.36 10711.1 4599.59 10715 4591.47 10715.2L3415.18 10717.1C3407.05 10716.9 3399.28 10713.1 3393.51 10706.2C3387.75 10699.3 3384.47 10689.8 3384.36 10680V10645.3L3693.64 10646.6Z" fill="#21252B"/>
<path d="M5483.52 5182.4L5361.79 5244.36C5361.79 5244.36 5225.65 5409.02 5273.33 5423.44L5483.52 5182.4Z" fill="#FC9D9D"/>
<path d="M5538.6 6498.85C5538.6 6498.85 5226.69 6568.4 5143.21 6889.27C5110.27 7016.14 5076.54 7143 5036.53 7266.97L4271.76 9654.4L4806.5 9929.06L5418.58 8189.33L5538.6 6498.85Z" fill="#21252B"/>
<path opacity="0.3" d="M5526.36 6517.4C5526.36 6517.4 5232.77 6556.02 5192.73 6967.99L5179.39 7997.93L4565.52 9816.41L4805.73 9929.06L5419.6 8174.95L5526.36 6517.4Z" fill="black"/>
<path opacity="0.1" d="M5532.48 5163.85L5364.23 5243.48C5364.23 5243.48 5224.72 5408.95 5273.58 5423.44L5532.48 5163.85Z" fill="black"/>
<path d="M5948.25 5377.08L6361.82 5299.73L6361.02 5298.44L7105.81 5138.74C7143.64 5123.41 7177.46 5096.58 7204.19 5060.85C7230.93 5025.11 7249.51 4981.66 7258.19 4934.72L7399.08 4271.58L7282.52 3903.02L6854.78 4696.86L6083.52 5059.61L6084.73 5061.22L5832.36 5141.8" fill="#FC9D9D"/>
<path d="M5876.34 5136.04L5562.57 5151.77C5535.58 5153.35 5509.77 5165.16 5489.04 5185.45L5251.76 5416.58C5247.01 5420.96 5243.34 5426.74 5241.12 5433.32C5238.9 5439.89 5238.2 5447.04 5239.1 5454.02C5241.53 5469.76 5252.57 5483.29 5287.99 5472.43C5291.47 5471.31 5294.8 5469.57 5297.82 5467.24L5429.79 5369.53L5558.66 5299.2L5649.16 5305.97C5649.16 5305.97 5678.92 5358.2 5581.83 5392.03C5581.83 5392.03 5485.27 5410.44 5485.27 5497.6L5753.53 5436.08L5991.48 5358.99" fill="#FC9D9D"/>
<path d="M7460.94 4338.75L7594.92 3318.96L7099.2 4031.19" fill="#4D61FC"/>
<path d="M7585.19 3263.19C7585.19 3263.19 7519.97 3468.23 7466.4 3708.33L8213.04 3072.71L7824.65 2911.04L7610.37 3001.48L7585.19 3263.19Z" fill="#4D61FC"/>
<path d="M5962.53 10448.6L5960.52 10566.7C5956.65 10656.6 5871.35 10727.4 5799.27 10729.8H5797.27L5543.64 10734.5H4829.48C4817.73 10708.5 4784.5 10630.6 4825.48 10613.9L5311.37 10377.3C5397.2 10341.9 5446.46 10302.2 5497.19 10224.3C5507.56 10207.5 5516.13 10189.2 5522.68 10169.8L5479.17 9130.61L6011.25 9402.26L5973.87 9838.57" fill="#FC9D9D"/>
<path opacity="0.15" d="M5977.75 10378.3L5975.75 10495.3C5973.88 10581.9 5888.7 10654.4 5814.72 10656.7H5812.72L5557.45 10661.5H4844.28C4840.41 10652 4834.55 10637.9 4828.68 10621.6H4867.74L5257.38 10605.6C5647.16 10586.9 5777.26 10373.9 5777.26 10373.9L5861.51 9774.53L5974.68 9788.78L5991.48 9752.92L5978.15 9988.42L5977.75 10378.3Z" fill="black"/>
<path d="M5085.66 10674.3C5046.96 10626.7 5020.79 10568 5010.01 10504.7C5009.46 10501.7 5009.89 10498.7 5011.22 10496.1C5012.54 10493.5 5014.67 10491.5 5017.19 10490.5L5314.27 10371.2C5317.96 10369.7 5321.91 10369 5325.86 10369.1C5329.8 10369.3 5333.67 10370.4 5337.23 10372.4C5340.77 10374.3 5343.93 10377 5346.49 10380.4C5349.05 10383.8 5350.96 10387.8 5352.1 10392C5367.99 10451.8 5407.96 10579.9 5486.39 10670.9L5963.02 10669.2C5978.91 10669.2 5966.93 10683.4 5966.93 10702C5966.86 10710.6 5963.78 10719 5958.33 10725.1C5952.88 10731.1 5945.5 10734.5 5937.8 10734.7L4821.37 10736.4C4813.65 10736.2 4806.28 10732.8 4800.8 10726.8C4795.33 10720.7 4792.22 10712.3 4792.12 10703.7V10673.2L5085.66 10674.3Z" fill="#21252B"/>
<path d="M6035.57 9973.46L5455.02 10003.2L5277.88 7003.31C5266.29 6846.27 5284.54 6518.35 5592.06 6477.8C5596.55 6476.7 5601 6475.3 5605.38 6473.61L7622.07 5951.48L8273.08 5914.79L8572.61 6147.3C8572.61 6147.3 8622.15 6742.65 8153.88 6998.33C8062.51 7047.14 7964.75 7076.33 7865.13 7084.57L5962.32 7304.53L6035.57 9973.46Z" fill="#21252B"/>
<path opacity="0.3" d="M5950.17 7301.7L7865.63 7081.16C7965.18 7072.9 8062.87 7043.63 8154.17 6994.68C8622.12 6738.8 8572.61 6141.38 8572.61 6141.38L8520.44 6044.58L8387.21 6077.82C8387.21 6077.82 8287.79 6713.48 7837.68 6800.27L5771.16 7061.96L5849.15 9968.55L6035.48 9984.69L5950.17 7301.7Z" fill="black"/>
<path d="M7486.58 6022.66C7486.58 6022.66 7280.33 5163.71 7310.25 4854.77C7376.74 4170.12 7469.83 3715.29 7469.83 3715.29C7554.01 3506.14 7667.44 3316.1 7805.21 3153.57L8211.21 2864.69C8211.21 2864.69 8570.27 3346.16 8580.24 3802.27L8558.83 5150.39C8553.64 5480.68 8573.59 5946.1 8573.59 6267.08" fill="#4D61FC"/>
<path opacity="0.2" d="M7617.39 3030.74L7610.45 3027.18L7607.51 3030.74L7582.68 3263.02L7609.38 3103.58C7609.38 3102.8 7609.65 3102.06 7610.05 3101.53C7610.59 3100.97 7611.12 3100.67 7611.79 3100.67C7612.45 3100.67 7612.99 3100.97 7613.52 3101.53C7613.92 3102.06 7614.19 3102.8 7614.19 3103.58L7628.88 3300.42L8225.28 2887.64L8171.88 2790.52L7617.39 3030.74Z" fill="black"/>
<path d="M7963.39 1817.08L8033.12 2373.38L8170.2 2793.78L7660.92 3226.25L7592.12 2818.89L7459.8 2869.77C7455.3 2871.86 7450.8 2873.64 7446.57 2875.25C7360.17 2905.36 7307.5 2908.25 7259.47 2743.22L7211.84 2540.67L7153.75 2523.44C7152.56 2523.2 7151.5 2522.76 7150.45 2522.15C7142.64 2518.53 7136.16 2511.28 7132.71 2501.96C7129.14 2492.64 7128.88 2482.01 7131.79 2472.4L7188.55 2290.13L7187.49 2280.15L7178.36 2257.29C7140.52 2160.82 7125.31 2053.49 7134.43 1947.18L7143.57 1843.01L7963.39 1817.08Z" fill="#FC9D9D"/>
<path d="M7168.85 1976.5L7378.2 1939.08C7493.97 1978.44 7383.68 2160.33 7625.25 2122.43C7638.62 2151.26 7639.42 2286.02 7685.01 2275.66C7721.51 2270.96 7708.67 2215.73 7705.86 2187.06L7844.36 2183.66C7878.72 2378.02 7949.17 2404.26 8045.83 2410.42C8099.3 2108.67 8212.53 1446.53 7818.56 1507.43C7783.54 1524.92 7757.33 1482.32 7742.63 1470.34C7679.39 1378.83 7503.2 1375.26 7410.55 1466.78C7381.94 1509.99 7345.05 1544.2 7303.2 1566.5C7261.23 1588.8 7215.64 1598.54 7169.92 1594.89C6940.92 1587.77 6933.3 1991.72 7168.85 1976.5Z" fill="#624040"/>
<path d="M7733.58 2456.77L7705.73 2189.24C7702.9 2160.78 7709.36 2132.12 7723.76 2109.46C7738.16 2086.8 7759.28 2071.98 7782.56 2068.21C7805.84 2064.71 7829.38 2072.61 7847.95 2090.18C7866.52 2107.74 7878.63 2133.55 7881.73 2161.98L7887.24 2214.7C7890.2 2242.91 7888.59 2271.55 7882.4 2298.98C7876.34 2326.42 7865.71 2352.11 7851.45 2374.59C7837.19 2397.07 7819.43 2415.91 7799.24 2430C7779.06 2444.11 7756.73 2453.21 7733.58 2456.77Z" fill="#FC9D9D"/>
<g opacity="0.3">
<path opacity="0.3" d="M7745.55 2243.44L7740.88 2199.63C7739.15 2181.24 7743.41 2162.74 7752.75 2148.12C7762.21 2133.49 7775.94 2123.88 7791.14 2121.35C7799.53 2119.75 7808.07 2120.46 7816.2 2123.42C7824.33 2126.37 7831.79 2131.51 7838.06 2138.42L7839.39 2139.87C7840.99 2143.03 7841.52 2146.73 7841.12 2150.37C7840.59 2154 7839.26 2157.33 7836.99 2159.83C7834.73 2162.32 7831.93 2163.84 7828.86 2164.1C7825.79 2164.37 7822.86 2163.37 7820.33 2161.29C7816.86 2157.09 7812.73 2153.97 7808.07 2152.19C7803.4 2150.44 7798.47 2150.07 7793.67 2151.15C7784.87 2152.47 7777.01 2157.94 7771.54 2166.34C7766.21 2174.73 7763.81 2185.38 7764.87 2195.93L7769.54 2239.74C7769.67 2243.89 7768.74 2247.99 7766.61 2251.27C7764.47 2254.56 7761.41 2256.81 7758.08 2257.62C7756.48 2258.02 7754.75 2257.94 7753.15 2257.39C7751.55 2256.85 7750.08 2255.83 7748.75 2254.45C7747.55 2253.04 7746.61 2251.34 7746.08 2249.42C7745.55 2247.5 7745.28 2245.46 7745.55 2243.44Z" fill="#21252B"/>
</g>
<path opacity="0.15" d="M7615.38 2966.67L7714.18 2802.29C7716 2798.59 7717.04 2794.33 7717.3 2789.96C7717.43 2785.58 7716.78 2781.23 7715.22 2777.3C7714.05 2774.21 7712.35 2771.46 7710.4 2769.18C7708.31 2766.91 7705.97 2765.18 7703.36 2764.08C7700.75 2762.98 7698.15 2762.54 7695.41 2762.77C7692.67 2763.01 7690.06 2763.92 7687.59 2765.46L7594.92 2818.72L7615.38 2966.67Z" fill="black"/>
<path d="M7600.59 2823.82L7692.97 2767.44C7860.15 2690.82 7711.5 2200.85 7711.5 2200.85L7644.36 2197.19C7695.79 2410.63 7660.34 2526.91 7660.34 2526.91C7620.06 2677.28 7537.61 2682.22 7477.19 2661.35C7441.07 2648.93 7403.74 2605.76 7377.96 2573.1C7300.61 2474.98 7215.48 2565.14 7215.48 2565.14L7259.12 2746.09C7307.86 2909.36 7361.31 2906.49 7448.99 2876.71C7453.55 2875.11 7458.12 2873.36 7462.42 2871.29" fill="#624040"/>
<path opacity="0.15" d="M7974.36 2382.6H7839.72C7855.54 2362.62 7868.68 2340.82 7878.71 2317.71C7889.17 2334.09 7903.01 2348.28 7919.4 2359.43C7935.93 2370.58 7954.58 2378.47 7974.36 2382.6Z" fill="black"/>
<path d="M7265.99 2335.94C7284.41 2333.03 7297.29 2310.04 7294.71 2284.61C7292.14 2259.17 7275.07 2240.92 7256.64 2243.85C7238.21 2246.78 7225.48 2269.75 7228.05 2295.2C7230.62 2320.63 7247.7 2338.87 7265.99 2335.94Z" fill="black"/>
<path d="M7239.96 2271.35C7243.27 2271.35 7246.08 2269.27 7246.08 2266.72C7246.08 2264.16 7243.27 2262.08 7239.96 2262.08C7236.65 2262.08 7233.84 2264.16 7233.84 2266.72C7233.84 2269.27 7236.65 2271.35 7239.96 2271.35Z" fill="white"/>
<path d="M7227.72 2616.32C7254.35 2608.91 7279.96 2596.11 7303.8 2578.38C7305.06 2577.47 7306.46 2577.11 7307.85 2577.38C7309.25 2577.65 7310.52 2578.52 7311.53 2579.88C7312.54 2581.23 7313.18 2582.98 7313.3 2584.87C7313.56 2586.74 7313.3 2588.64 7312.54 2590.29C7295.55 2628.27 7271.08 2659.09 7241.67 2679.27L7227.72 2616.32Z" fill="white"/>
<path d="M7173.04 2166.98C7177.49 2174.52 7208.39 2162.33 7246.15 2157.03C7283.92 2151.74 7315.58 2153.83 7319.27 2145C7320.92 2140.83 7314.44 2134.42 7300.96 2128.96C7282.52 2122.95 7263.45 2121.49 7244.63 2124.63C7225.43 2127.28 7206.74 2134.4 7189.57 2145.65C7176.73 2154.95 7171.01 2163.29 7173.04 2166.98Z" fill="black"/>
<path d="M8213.04 2821.63L8176.74 2670L7582.68 2964.91V3226.25L7605.81 3035.43C7608.09 3021.61 7618.45 3017.44 7619.25 3031.41C7619.25 3057.59 7627.19 3106.42 7649.91 3218.86L8213.04 2821.63Z" fill="#4D61FC"/>
<path opacity="0.2" d="M8011.08 3420.94C8011.08 3420.94 7779.84 3474.99 7726.29 3830.9L7594.92 4612.42L7765.53 4644.69L8011.08 3420.94Z" fill="black"/>
<path opacity="0.2" d="M8172.21 3411.67C8172.21 3411.67 8557.62 3465.04 8380.86 4242.96L8239.21 4793.02L8078.4 4744.64L8172.21 3411.67Z" fill="black"/>
<path opacity="0.3" d="M7504.4 5878.42L7515.36 5673.75L7367.83 5741.97L7325.64 5905.52L7504.4 5878.42Z" fill="black"/>
<path d="M7898.8 5686.98C7741.69 5754.84 7321.35 5929.33 6758.58 6109.48L6523.92 5964.23L7544.94 5324.75L7685.23 4477.81L8219.16 4574.75L7984.9 5574.69C7978.89 5600.33 7968.08 5623.91 7953 5643.44C7938.05 5662.96 7919.49 5677.89 7898.8 5686.98Z" fill="#FC9D9D"/>
<path d="M6866.64 6065.34L6832.37 6095.36C6804.37 6121.26 6772.11 6139.88 6737.58 6149.96C6703.18 6160.07 6667.31 6161.43 6632.38 6153.97H6630.78L6628.38 6154.92C6613.71 6151.58 6597.85 6143.17 6586.38 6153.17L6466.38 6264.35C6463.41 6267.26 6459.79 6269.1 6455.97 6269.66C6452.16 6270.21 6448.28 6269.48 6444.78 6267.53C6441.58 6265.88 6438.73 6263.4 6436.44 6260.27C6434.14 6257.14 6432.45 6253.44 6431.52 6249.44C6430.57 6245.44 6430.38 6241.24 6430.97 6237.14C6431.56 6233.05 6432.92 6229.16 6434.92 6225.76L6514.91 6102.82L6394.92 6282.14C6392.21 6286.21 6388.7 6289.41 6384.7 6291.5C6380.7 6293.58 6376.34 6294.45 6371.98 6294.05C6367.81 6293.56 6363.8 6291.83 6360.32 6289.02C6356.84 6286.19 6354.01 6282.38 6352.1 6277.91C6350.2 6273.45 6349.25 6268.5 6349.37 6263.48C6349.49 6258.47 6350.66 6253.58 6352.78 6249.26L6430 6088.05L6328.25 6298.34C6325.7 6303.58 6321.88 6307.79 6317.29 6310.43C6312.7 6313.06 6307.56 6314 6302.53 6313.11C6298.19 6312.68 6293.99 6311.03 6290.28 6308.28C6286.59 6305.54 6283.49 6301.79 6281.24 6297.32C6279 6292.88 6277.69 6287.84 6277.4 6282.66C6277.11 6277.49 6277.87 6272.29 6279.59 6267.53L6349.98 6084.08L6221.99 6278.65C6219.89 6282.11 6217.24 6285.03 6214.17 6287.24C6211.11 6289.46 6207.71 6290.91 6204.16 6291.51C6200.61 6292.13 6197 6291.88 6193.53 6290.78C6190.07 6289.68 6186.83 6287.78 6183.99 6285.16C6176.25 6281.66 6170.65 6260.7 6179.85 6245.61L6307.85 6007.37C6320.4 5981.88 6340.38 5962.77 6363.98 5953.69L6694.51 5886.98L6866.64 6065.34Z" fill="#FC9D9D"/>
<path opacity="0.15" d="M6437.76 6239.27C6439.42 6239.27 6439.42 6239.27 6440.66 6236.14L6516.64 6119.41C6517.74 6116.77 6518.57 6112.33 6516.64 6110.85C6514.7 6109.37 6510.82 6108.71 6509.58 6110.85L6433.33 6227.75C6432.08 6230.22 6431.39 6234.83 6433.33 6236.14L6437.76 6239.27Z" fill="black"/>
<path opacity="0.15" d="M6358.23 6257.27C6359.79 6257.27 6361.35 6256.35 6360.96 6254.51L6431.64 6108.04C6432.16 6106.78 6432.26 6105.35 6431.92 6104C6431.59 6102.66 6430.84 6101.53 6429.82 6100.82C6428.79 6100.19 6427.58 6100.04 6426.45 6100.41C6425.31 6100.77 6424.35 6101.63 6423.73 6102.82L6353.05 6249.13C6352.53 6250.39 6352.42 6251.84 6352.73 6253.19C6353.03 6254.54 6353.75 6255.72 6354.73 6256.5C6355.12 6258.35 6356.68 6257.89 6358.23 6257.27Z" fill="black"/>
<path opacity="0.15" d="M6555.23 6141.33C6528.81 6170.05 6482.37 6217.45 6467.66 6236.45C6445.74 6261.72 6432.12 6241.94 6432.12 6241.94C6432.51 6247.01 6434.07 6251.86 6436.63 6255.99C6439.19 6260.13 6442.66 6263.41 6446.69 6265.48C6450.33 6266.91 6454.19 6267.4 6458.01 6266.88C6461.83 6266.36 6465.5 6264.87 6468.75 6262.5L6591.32 6152.63C6603.03 6142.9 6618.55 6151.06 6634.08 6154.36L6601.8 6130.97C6593.91 6127.88 6585.46 6127.2 6577.29 6129.02C6569.12 6130.84 6561.49 6135.08 6555.23 6141.33Z" fill="black"/>
<path opacity="0.15" d="M8170.2 4768.72L8025.45 4728.12L7867.96 5500.51C7864.12 5519.64 7856.42 5537.36 7845.67 5552.19C7834.93 5567.02 7821.39 5578.51 7806.14 5585.69L6846.36 6041.8C6846.36 6041.8 6670.96 6126.98 6634.08 6153.67C6657.96 6146 6710.24 6186.75 6833.09 6089.74L7463.97 5857.05L7858.54 5702.35L7893.57 5687.49C7914.27 5678.52 7932.98 5663.68 7947.97 5644.21C7962.96 5624.75 7973.97 5601.22 7979.81 5575.62L8170.2 4768.72Z" fill="black"/>
<path d="M8207.64 4774.48L8347.49 4137.93C8406.7 3889.26 8383.52 3708.27 8354.99 3601.05C8317.89 3461.69 8186.88 3379.22 8067.39 3408.16C7981.39 3430.02 7904.77 3488.27 7851.59 3572.28C7810.87 3640.82 7784.21 3719.89 7773.63 3803.11L7631.64 4613.74L8207.64 4774.48Z" fill="#4D61FC"/>
<path opacity="0.2" d="M8353.8 6216.69L8573.69 6267.08C8573.69 5945.1 8554.03 5478.21 8559.14 5146.24L8580.24 3793.9C8578.14 3723.12 8569.36 3652.88 8554.03 3584.6L8545.78 3548.86C8545.12 3546.29 8544.6 3543.87 8543.94 3541.46C8543.94 3548.86 8560.58 5156.23 8353.8 6216.69Z" fill="black"/>
<path d="M4681.8 5775.73L5326.92 10726.4H5410.08L4896.26 5775.73H4681.8Z" fill="#61656D"/>
<path d="M1150.3 5775.73L636.48 10726.4H719.643L1364.76 5775.73H1150.3Z" fill="#61656D"/>
<path opacity="0.2" d="M691.56 10726.4L1265.58 5939.09C1267.26 5919.48 1262.92 5899.8 1253.4 5883.79C1243.88 5867.76 1229.84 5856.52 1213.91 5852.17L1145.7 5836.04L1151.17 5775.73H1364.76L722.93 10726.4H691.56Z" fill="black"/>
<path d="M1762.56 10726.4H1847.38L2490.84 5775.73H2276.93L1762.56 10726.4Z" fill="#61656D"/>
<path opacity="0.2" d="M1817.64 10726.4L2025.45 8768.85L1950.15 8706.43L2277.44 5775.73H2490.84L1848.9 10726.4H1817.64Z" fill="black"/>
<path d="M1254.6 5681.86C1254.75 5695.52 1257.2 5709.01 1261.8 5721.44C1266.39 5733.86 1273.03 5744.94 1281.27 5753.99C1298.83 5773.72 1321.61 5784.75 1345.28 5785H6249.54C6270.91 5781.72 6290.75 5769.5 6305.81 5750.34C6320.08 5732.44 6328.08 5708.23 6328.08 5683.02C6328.08 5657.8 6320.08 5633.61 6305.81 5615.7C6290.75 5596.55 6270.91 5584.32 6249.54 5581.04H1345.28C1333.54 5581.04 1321.89 5583.63 1310.87 5588.67C1300.1 5593.66 1290.15 5601.07 1281.54 5610.56C1273.31 5619.94 1266.61 5631.2 1261.8 5643.72C1257.23 5655.64 1254.77 5668.64 1254.6 5681.86Z" fill="#61656D"/>
<path opacity="0.2" d="M1254.6 5681.86C1254.75 5695.52 1257.2 5709.01 1261.8 5721.44C1266.39 5733.86 1273.03 5744.94 1281.27 5753.99C1298.83 5773.72 1321.61 5784.75 1345.28 5785H6249.54C6270.91 5781.72 6290.75 5769.5 6305.81 5750.34C6320.08 5732.44 6328.08 5708.23 6328.08 5683.02C6328.08 5657.8 6320.08 5633.61 6305.81 5615.7C6290.75 5596.55 6270.91 5584.32 6249.54 5581.04H1345.28C1333.54 5581.04 1321.89 5583.63 1310.87 5588.67C1300.1 5593.66 1290.15 5601.07 1281.54 5610.56C1273.31 5619.94 1266.61 5631.2 1261.8 5643.72C1257.23 5655.64 1254.77 5668.64 1254.6 5681.86Z" fill="black"/>
<path d="M544.68 5681.86C544.72 5695.34 546.933 5708.66 551.198 5721.06C555.449 5733.45 561.66 5744.64 569.47 5753.99C585.73 5773.53 607.375 5784.62 629.979 5785H4301.4C4321.92 5781.68 4340.81 5769.4 4354.72 5750.34C4368.27 5731.99 4375.8 5707.96 4375.8 5683.02C4375.8 5658.08 4368.27 5634.06 4354.72 5615.7C4340.81 5596.65 4321.92 5584.36 4301.4 5581.04H630.645C608.254 5580.89 586.689 5591.46 570.403 5610.56C562.526 5619.68 556.235 5630.71 551.93 5642.98C547.626 5655.25 545.373 5668.48 545.346 5681.86" fill="#61656D"/>
<path d="M2820.42 4839.37L2992.68 3792.9L2987.46 3791.77L2815.2 4838.09L2820.42 4839.37Z" fill="#3F4249"/>
<path d="M2765.99 3439.48L2760.12 3439.62L2784.85 4802.29L2790.72 4802.16L2765.99 3439.48Z" fill="#3F4249"/>
<path d="M2464.56 3699.06L2460.24 3703.14L2731.32 4106.98L2735.64 4102.92L2464.56 3699.06Z" fill="#3F4249"/>
<path d="M2632.6 5068.54L2677.89 5019.89C2723.17 4971.24 2746.48 4913.51 2746.48 4854.32V4737.4H2919.61V4854.32C2919.61 4913.51 2943.19 4971.24 2988.2 5019.89L3033.49 5068.54C3127.51 5171.03 3156.55 5298.49 3114.86 5418.01L3064.38 5562.5H2602.51L2551.9 5418.01C2510.34 5298.49 2540.97 5171.03 2632.6 5068.54Z" fill="#858990"/>
<path d="M2617.38 5068.26L2657.71 5019.65C2698.05 4971.04 2750.35 4913.36 2750.35 4854.22V4737.4H2795.65V4843.04C2795.65 4907.85 2771.18 4972.66 2727.62 5028.08C2659.46 5129.18 2659.46 5244.71 2683.93 5339.18C2700.29 5398.58 2727.38 5452.87 2763.25 5498.13L2794.04 5538.8C2800.94 5546.67 2809.07 5552.81 2817.96 5556.86C2826.84 5560.93 2836.31 5562.83 2845.8 5562.45H2588.07L2542.77 5417.92C2507.41 5298.02 2534.29 5170.67 2617.38 5068.26Z" fill="#61656D"/>
<path d="M2567.72 4106.98L2564.28 4112.19L2879.08 4440.73L2882.52 4435.52L2567.72 4106.98Z" fill="#3F4249"/>
<path d="M2842.96 4681.77L3121.2 4361.12L3117.92 4357.29L2839.68 4676.66L2842.96 4681.77Z" fill="#3F4249"/>
<path d="M2668.32 3930.83L2624.48 3696.2C2620.74 3677.05 2613.11 3659.37 2602.26 3644.77C2591.42 3630.18 2577.74 3619.17 2562.46 3612.75C2547.2 3606.33 2530.85 3604.7 2514.93 3608.05C2499.01 3611.38 2484.05 3619.56 2471.42 3631.83C2458.87 3644.16 2449.08 3660.14 2442.95 3678.31C2436.82 3696.46 2434.56 3716.22 2436.36 3735.73C2438.17 3755.25 2443.98 3773.88 2453.28 3789.93C2462.56 3805.97 2475.03 3818.91 2489.51 3827.52L2668.32 3930.83Z" fill="#4D61FC"/>
<path opacity="0.3" d="M2668.32 3930.83L2624.48 3696.2C2620.74 3677.05 2613.11 3659.37 2602.26 3644.77C2591.42 3630.18 2577.74 3619.17 2562.46 3612.75C2547.2 3606.33 2530.85 3604.7 2514.93 3608.05C2499.01 3611.38 2484.05 3619.56 2471.42 3631.83C2458.87 3644.16 2449.08 3660.14 2442.95 3678.31C2436.82 3696.46 2434.56 3716.22 2436.36 3735.73C2438.17 3755.25 2443.98 3773.88 2453.28 3789.93C2462.56 3805.97 2475.03 3818.91 2489.51 3827.52L2668.32 3930.83Z" fill="white"/>
<path d="M2435.83 3725.57C2435.76 3747.12 2440.87 3768.23 2450.52 3786.35C2460.17 3804.46 2473.95 3818.81 2490.2 3827.64L2668.32 3930.83L2472.03 3634.17C2460.3 3644.69 2450.87 3658.51 2444.56 3674.44C2438.25 3690.36 2435.26 3707.93 2435.83 3725.57Z" fill="#4D61FC"/>
<path d="M2769.21 3828.85L2898.7 3509.42C2909.33 3483.27 2914.22 3454.33 2912.91 3425.32C2911.58 3396.3 2904.09 3368.17 2891.14 3343.56C2878.2 3318.93 2860.21 3298.65 2838.87 3284.63C2817.54 3270.59 2793.57 3263.27 2769.21 3263.33C2744.89 3263.41 2720.99 3270.83 2699.71 3284.9C2678.45 3298.96 2660.51 3319.22 2647.58 3343.78C2634.64 3368.34 2627.13 3396.41 2625.72 3425.38C2624.32 3454.33 2629.09 3483.24 2639.59 3509.42L2769.21 3828.85Z" fill="#4D61FC"/>
<path opacity="0.3" d="M2769.21 3828.85L2898.7 3509.42C2909.33 3483.27 2914.22 3454.33 2912.91 3425.32C2911.58 3396.3 2904.09 3368.17 2891.14 3343.56C2878.2 3318.93 2860.21 3298.65 2838.87 3284.63C2817.54 3270.59 2793.57 3263.27 2769.21 3263.33C2744.89 3263.41 2720.99 3270.83 2699.71 3284.9C2678.45 3298.96 2660.51 3319.22 2647.58 3343.78C2634.64 3368.34 2627.13 3396.41 2625.72 3425.38C2624.32 3454.33 2629.09 3483.24 2639.59 3509.42L2769.21 3828.85Z" fill="white"/>
<path opacity="0.3" d="M2765.58 3272.6L2772.36 3828.85L2640.04 3514.02C2629.49 3488.89 2624.54 3461.14 2625.63 3433.25C2626.71 3405.37 2633.8 3378.23 2646.24 3354.3C2658.7 3330.35 2676.12 3310.35 2696.96 3296.09C2717.78 3281.83 2741.37 3273.77 2765.58 3272.6Z" fill="white"/>
<path d="M2913.61 4255.31L3100.43 3986.79C3115.77 3964.8 3126.23 3938.5 3130.81 3910.34C3135.4 3882.15 3133.97 3853.05 3126.65 3825.72C3119.33 3798.4 3106.38 3773.77 3088.99 3754.12C3071.6 3734.47 3050.36 3720.46 3027.24 3713.4C3004.14 3706.45 2979.94 3706.65 2956.9 3714C2933.88 3721.33 2912.77 3735.58 2895.55 3755.39C2878.33 3775.2 2865.56 3799.93 2858.41 3827.28C2851.27 3854.64 2850 3883.73 2854.71 3911.83L2913.61 4255.31Z" fill="#4D61FC"/>
<path opacity="0.3" d="M2854.64 3909.04C2850.04 3881.32 2851.28 3852.63 2858.27 3825.65C2865.25 3798.67 2877.74 3774.28 2894.56 3754.74C2911.4 3735.2 2932.03 3721.15 2954.53 3713.92C2977.05 3706.67 3000.7 3706.48 3023.28 3713.33L2911.16 4246.04L2854.64 3909.04Z" fill="white"/>
<path d="M2937.6 4570.52L3021.33 4319.18C3028.13 4298.61 3039.18 4280.45 3053.43 4266.4C3067.69 4252.37 3084.68 4242.91 3102.81 4238.91C3120.94 4234.92 3139.62 4236.53 3157.09 4243.59C3174.57 4250.64 3190.27 4262.92 3202.71 4279.25C3215.2 4295.61 3224.03 4315.51 3228.35 4337.09C3232.67 4358.68 3232.34 4381.22 3227.39 4402.62C3222.45 4424 3213.04 4443.52 3200.09 4459.34C3187.12 4475.17 3171.02 4486.77 3153.29 4493.05L2937.6 4570.52Z" fill="#4D61FC"/>
<path opacity="0.3" d="M2937.6 4570.52L3021.33 4319.18C3028.13 4298.61 3039.18 4280.45 3053.43 4266.4C3067.69 4252.37 3084.68 4242.91 3102.81 4238.91C3120.94 4234.92 3139.62 4236.53 3157.09 4243.59C3174.57 4250.64 3190.27 4262.92 3202.71 4279.25C3215.2 4295.61 3224.03 4315.51 3228.35 4337.09C3232.67 4358.68 3232.34 4381.22 3227.39 4402.62C3222.45 4424 3213.04 4443.52 3200.09 4459.34C3187.12 4475.17 3171.02 4486.77 3153.29 4493.05L2937.6 4570.52Z" fill="white"/>
<path opacity="0.3" d="M3200.76 4274.09L2937.6 4570.52L3021.73 4319.12C3028.51 4299.09 3039.31 4281.36 3053.17 4267.49C3067.02 4253.63 3083.53 4244.05 3101.22 4239.6C3118.9 4235.14 3137.24 4235.97 3154.6 4241.98C3171.95 4248 3187.81 4259.02 3200.76 4274.09Z" fill="white"/>
<path d="M2796.84 4348.02L2704.41 4081.84C2696.8 4060.08 2684.7 4040.96 2669.19 4026.26C2653.69 4011.55 2635.31 4001.74 2615.76 3997.76C2596.2 3993.75 2576.11 3995.7 2557.36 4003.4C2538.61 4011.11 2521.81 4024.33 2508.52 4041.81C2495.23 4059.35 2485.95 4080.63 2481.53 4103.62C2477.11 4126.61 2477.7 4150.56 2483.26 4173.21C2488.81 4195.86 2499.14 4216.44 2513.27 4233.02C2527.41 4249.6 2544.87 4261.63 2564.01 4267.96L2796.84 4348.02Z" fill="#4D61FC"/>
<path opacity="0.3" d="M2796.84 4348.02L2704.41 4081.84C2696.8 4060.08 2684.7 4040.96 2669.19 4026.26C2653.69 4011.55 2635.31 4001.74 2615.76 3997.76C2596.2 3993.75 2576.11 3995.7 2557.36 4003.4C2538.61 4011.11 2521.81 4024.33 2508.52 4041.81C2495.23 4059.35 2485.95 4080.63 2481.53 4103.62C2477.11 4126.61 2477.7 4150.56 2483.26 4173.21C2488.81 4195.86 2499.14 4216.44 2513.27 4233.02C2527.41 4249.6 2544.87 4261.63 2564.01 4267.96L2796.84 4348.02Z" fill="white"/>
<path d="M2787.52 4672.5L2790.72 4667.15L2352.21 4375.83L2350.08 4381.02L2787.52 4672.5Z" fill="#3F4249"/>
<path d="M2723.4 4626.15L2562.77 4365.85C2549.71 4344.5 2532.29 4327.44 2512.14 4316.28C2491.99 4305.12 2469.76 4300.22 2447.58 4302.04C2425.39 4303.86 2403.95 4312.35 2385.3 4326.69C2366.63 4341.05 2351.36 4360.8 2340.91 4384.08C2330.53 4407.36 2325.27 4433.35 2325.62 4459.69C2325.98 4486 2331.95 4511.79 2342.97 4534.66C2353.99 4557.52 2369.71 4576.71 2388.65 4590.44C2407.62 4604.16 2429.18 4612 2451.37 4613.19L2723.4 4626.15Z" fill="#4D61FC"/>
<path opacity="0.3" d="M2723.4 4626.15L2562.77 4365.85C2549.71 4344.5 2532.29 4327.44 2512.14 4316.28C2491.99 4305.12 2469.76 4300.22 2447.58 4302.04C2425.39 4303.86 2403.95 4312.35 2385.3 4326.69C2366.63 4341.05 2351.36 4360.8 2340.91 4384.08C2330.53 4407.36 2325.27 4433.35 2325.62 4459.69C2325.98 4486 2331.95 4511.79 2342.97 4534.66C2353.99 4557.52 2369.71 4576.71 2388.65 4590.44C2407.62 4604.16 2429.18 4612 2451.37 4613.19L2723.4 4626.15Z" fill="white"/>
<path d="M2336.85 4517.69C2346.85 4545.07 2362.88 4568.48 2383.15 4585.28C2403.4 4602.07 2427.08 4611.6 2451.51 4612.75L2723.4 4626.15L2341.3 4375.83C2331.8 4397.51 2326.46 4421.55 2325.7 4446.13C2324.93 4470.72 2328.74 4495.19 2336.85 4517.69Z" fill="#4D61FC"/>
<path opacity="0.3" d="M2704.62 4081.34L2796.84 4348.02L2509.2 4041.23C2522.54 4023.91 2539.32 4010.85 2557.99 4003.26C2576.66 3995.67 2596.63 3993.77 2616.08 3997.77C2635.53 4001.76 2653.81 4011.49 2669.28 4026.1C2684.75 4040.7 2696.9 4059.69 2704.62 4081.34Z" fill="white"/>
<path d="M4556.12 5483.45L4018.51 3883.91C4016.21 3876.84 4012.79 3870.37 4008.41 3864.91C4004.05 3859.44 3998.84 3855.09 3993.07 3852.08C3987.31 3849.08 3981.11 3847.48 3974.83 3847.4C3968.55 3847.32 3962.32 3848.74 3956.51 3851.6L3929.04 3865.17L4505.98 5581.04L4523.58 5572.32V5575.71H5975.48C5995.95 5575.71 6015.59 5565.85 6030.07 5548.31C6044.55 5530.76 6052.68 5506.98 6052.68 5482.16L4556.12 5483.45Z" fill="#4D61FC"/>
<path opacity="0.3" d="M4556.12 5483.45L4018.51 3883.91C4016.21 3876.84 4012.79 3870.37 4008.41 3864.91C4004.05 3859.44 3998.84 3855.09 3993.07 3852.08C3987.31 3849.08 3981.11 3847.48 3974.83 3847.4C3968.55 3847.32 3962.32 3848.74 3956.51 3851.6L3929.04 3865.17L4505.98 5581.04L4523.58 5572.32V5575.71H5975.48C5995.95 5575.71 6015.59 5565.85 6030.07 5548.31C6044.55 5530.76 6052.68 5506.98 6052.68 5482.16L4556.12 5483.45Z" fill="black"/>
<path d="M4020.84 10281.4C4010.53 10294.5 3994.87 10303 3981.78 10312.7C3967.97 10323 3950.86 10331.9 3935.16 10337" stroke="#21252B" stroke-width="4" stroke-linecap="round"/>
<path d="M5384.99 10290.6C5384.83 10291.8 5380.3 10293 5379.02 10293C5377.08 10293.2 5375.07 10293.1 5373.12 10293.1C5372.28 10293.1 5371.44 10293.1 5370.61 10293.1C5369.42 10293.1 5368.19 10290.3 5368.19 10293.8C5368.19 10295.6 5369.32 10296.8 5370.06 10298.4C5370.48 10299.3 5370.46 10300.2 5370.74 10301.1C5371.18 10302.6 5371.21 10304.7 5372.03 10306C5373.34 10308 5373.96 10310.3 5375.18 10312.4C5376.07 10313.9 5375.5 10316.4 5375.5 10318C5375.5 10321.5 5375.2 10325.1 5376.49 10328.4C5377.01 10329.7 5376.73 10331.3 5376.73 10332.6C5376.73 10333.8 5376.81 10334.9 5377.03 10336.1C5377.34 10337.7 5377.34 10339.3 5377.34 10336.6C5377.34 10333.1 5376.24 10329.8 5375.37 10326.5C5374.66 10323.8 5372.36 10321.6 5370.93 10319.2C5370.22 10318.1 5370.69 10316.4 5370.3 10315.2C5369.96 10314 5370.04 10313 5369.99 10311.8C5369.95 10310.7 5369.34 10309.6 5369.14 10308.5C5368.77 10306.3 5368.27 10304.1 5367.92 10301.9C5367.62 10300.1 5367.24 10298.5 5367.24 10296.6C5367.24 10294.8 5367.24 10294.4 5367.24 10296.6C5367.24 10303.3 5369.09 10309.1 5371.59 10315.4C5374.49 10322.7 5377.34 10331 5377.34 10338.9C5377.34 10344.5 5376.42 10350 5376.42 10355.6C5376.42 10358.3 5377 10361.2 5378.12 10363.6C5378.65 10364.8 5378.86 10364.7 5378.87 10363.3C5378.9 10359.5 5378.87 10355.7 5378.87 10351.9C5378.87 10349 5379.3 10346 5378.09 10343.2C5377.06 10340.9 5374.47 10339.3 5373.24 10337C5371.51 10333.8 5371.88 10330.3 5371.51 10326.8C5371.38 10325.7 5371.45 10329 5371.52 10329.4C5371.92 10331.5 5372.34 10333.7 5372.99 10335.8C5373.59 10337.8 5373.05 10340.5 5373.05 10342.5C5373.05 10347.2 5373.33 10352.1 5375.03 10356.6C5376.12 10359.5 5377.1 10362.9 5377.64 10365.9C5378.06 10368.3 5377.65 10370.7 5378.09 10373C5378.87 10377.2 5382.45 10380.4 5385.6 10383.3" stroke="#21252B" stroke-linecap="round"/>
<path d="M5381.25 10383.3C5381.16 10388.8 5380.93 10393.9 5381.56 10399.2C5381.73 10400.7 5381.85 10402.1 5382.04 10403.6C5382.57 10407.6 5383.27 10411.6 5383.91 10415.6C5384.96 10422 5384.67 10428.7 5384.67 10435.4C5384.67 10439.5 5384.67 10443.5 5384.67 10447.5C5384.67 10451.5 5385.24 10455.5 5385.59 10459.4C5386.2 10466.1 5385.81 10473.5 5385.81 10480.4C5385.81 10486.6 5385.53 10493.2 5385.84 10499.4C5386.15 10505.7 5388.3 10510.7 5389.42 10516.3C5389.54 10516.9 5389.57 10517.6 5389.64 10518.3C5389.82 10519.7 5390.48 10521.1 5391 10522C5391.47 10522.9 5391.69 10522.2 5391.71 10520.9C5391.81 10515.8 5391.01 10510.4 5390.53 10505.5C5389.75 10497.4 5388.91 10489.4 5388.04 10481.5C5387.44 10476 5387.08 10470.3 5386.32 10465C5385.79 10461.2 5384.95 10457.6 5384.3 10453.9C5383.02 10446.6 5382.22 10438.4 5381.53 10430.7C5381.13 10426.3 5381.5 10421.7 5381.23 10417.3C5381 10413.6 5380.54 10410.1 5380.27 10406.4C5380.08 10403.9 5379.91 10401.4 5379.71 10398.9C5379.45 10395.7 5379.51 10392.6 5379.48 10389.4" stroke="#21252B" stroke-linecap="round"/>
<path opacity="0.2" d="M5422.32 10735.6H5385.28L4832.69 5950.1C4831.42 5931.36 4824.53 5913.82 4813.32 5900.73C4802.1 5887.64 4787.32 5879.9 4771.72 5878.95L4701.53 5869.93L4694.04 5794.27H4907.96L5422.32 10735.6Z" fill="black"/>
<path d="M5349.87 10277.3C5348.2 10280.1 5349.68 10287.2 5349.91 10290.8C5350.22 10295.8 5352.65 10299.4 5353.46 10304.1C5354.21 10308.3 5355.69 10312.3 5356.44 10316.5C5357.82 10324.4 5358.89 10332.4 5359.9 10340.5C5361.84 10355.8 5361.99 10370.4 5361.99 10385.9C5361.99 10387.5 5361.99 10392.1 5361.99 10390.5C5361.99 10384.6 5362.07 10378.7 5361.99 10372.8C5361.79 10358.5 5359.97 10342.6 5357.37 10328.8" stroke="#4E5157" stroke-linecap="round"/>
<path d="M4187.93 10167.8C4190.75 10169 4195.39 10169 4198.15 10167.4C4198.53 10167.2 4199.69 10166.9 4199.39 10167.4C4197.78 10169.6 4193.39 10168.3 4191.4 10168.3C4188.28 10168.3 4184.5 10167.7 4181.52 10169.2" stroke="#FC9D9D" stroke-width="2" stroke-linecap="round"/>
<g filter="url(#filter0_d_1_99)">
<path d="M3469.6 10547.2L3383.62 10659.5H4615.58L4662.6 10169.8L4180.3 10036L4119.84 10169.8L4015.05 10267.7L3962.66 10291.6L3469.6 10547.2Z" fill="#21252B"/>
<path d="M3469.6 10547.2L3383.62 10659.5H4615.58L4662.6 10169.8L4180.3 10036L4119.84 10169.8L4015.05 10267.7L3962.66 10291.6L3469.6 10547.2Z" stroke="black"/>
</g>
<path d="M4800.56 10609.7L4786.72 10676.6H5073.26L5318.28 10633.6L5269.83 10334.9L5002.67 10507L4800.56 10609.7Z" fill="#21252B" stroke="black"/>
<path d="M5503.26 10151.3L5369.55 10317.2L5384.55 10489.5L5407.75 10672.4L5971.26 10685.1V10151.3H5503.26Z" fill="#21252B" stroke="black"/>
<defs>
<filter id="filter0_d_1_99" x="3378.61" y="10035.4" width="1288.53" height="632.609" filterUnits="userSpaceOnUse" color-interpolation-filters="sRGB">
<feFlood flood-opacity="0" result="BackgroundImageFix"/>
<feColorMatrix in="SourceAlpha" type="matrix" values="0 0 0 0 0 0 0 0 0 0 0 0 0 0 0 0 0 0 127 0" result="hardAlpha"/>
<feOffset dy="4"/>
<feGaussianBlur stdDeviation="2"/>
<feComposite in2="hardAlpha" operator="out"/>
<feColorMatrix type="matrix" values="0 0 0 0 0 0 0 0 0 0 0 0 0 0 0 0 0 0 0.25 0"/>
<feBlend mode="normal" in2="BackgroundImageFix" result="effect1_dropShadow_1_99"/>
<feBlend mode="normal" in="SourceGraphic" in2="effect1_dropShadow_1_99" result="shape"/>
</filter>
</defs>
</svg>
